<svg width="100" height="100" viewBox="0 0 100 100" fill="none" xmlns="http://www.w3.org/2000/svg">
<circle cx="50" cy="50" r="50" fill="#7F5AF0"/>
<circle cx="50" cy="50" r="50" fill="#7F5AF0"/>
<circle cx="50" cy="50" r="50" fill="#7F5AF0"/>
<path d="M78 36L57 17.59C55.0749 15.8682 52.5828 14.9162 50 14.9162C47.4173 14.9162 44.9251 15.8682 43 17.59L22 36C20.8883 36.9943 20.0012 38.2139 19.3977 39.5779C18.7942 40.9418 18.4882 42.4186 18.5 43.91V74.5C18.5 77.2848 19.6063 79.9555 21.5754 81.9246C23.5445 83.8938 26.2153 85 29 85H71C73.7848 85 76.4555 83.8938 78.4247 81.9246C80.3938 79.9555 81.5 77.2848 81.5 74.5V43.875C81.5069 42.3895 81.1985 40.9194 80.5952 39.5619C79.9918 38.2044 79.1073 36.9903 78 36ZM57 78H43V60.5C43 59.5717 43.3688 58.6815 44.0252 58.0251C44.6815 57.3688 45.5718 57 46.5 57H53.5C54.4283 57 55.3185 57.3688 55.9749 58.0251C56.6313 58.6815 57 59.5717 57 60.5V78ZM74.5 74.5C74.5 75.4283 74.1313 76.3185 73.4749 76.9749C72.8185 77.6313 71.9283 78 71 78H64V60.5C64 57.7152 62.8938 55.0445 60.9246 53.0754C58.9555 51.1062 56.2848 50 53.5 50H46.5C43.7153 50 41.0445 51.1062 39.0754 53.0754C37.1063 55.0445 36 57.7152 36 60.5V78H29C28.0718 78 27.1815 77.6313 26.5252 76.9749C25.8688 76.3185 25.5 75.4283 25.5 74.5V43.875C25.5007 43.3781 25.6071 42.8869 25.8123 42.4343C26.0175 41.9817 26.3167 41.578 26.69 41.25L47.69 22.875C48.3287 22.3139 49.1498 22.0044 50 22.0044C50.8502 22.0044 51.6713 22.3139 52.31 22.875L73.31 41.25C73.6834 41.578 73.9826 41.9817 74.1878 42.4343C74.3929 42.8869 74.4994 43.3781 74.5 43.875V74.5Z" fill="white"/>
</svg>
