<svg width="100" height="100" viewBox="0 0 100 100" fill="none" xmlns="http://www.w3.org/2000/svg">
<circle cx="50" cy="50" r="50" fill="#7F5AF0"/>
<circle cx="50" cy="50" r="50" fill="#7F5AF0"/>
<circle cx="50" cy="50" r="50" fill="#7F5AF0"/>
<path d="M81.8433 41.6292L75.3858 39.4767L78.4267 33.395C78.7349 32.7584 78.838 32.0419 78.7217 31.3442C78.6055 30.6466 78.2755 30.0022 77.7775 29.5L70.5 22.2225C69.9951 21.7171 69.3446 21.3827 68.6398 21.2663C67.935 21.1498 67.2114 21.2572 66.5708 21.5733L60.4892 24.6142L58.3367 18.1567C58.1093 17.4836 57.6778 16.8981 57.1022 16.4816C56.5266 16.0652 55.8354 15.8386 55.125 15.8333H44.875C44.1587 15.8315 43.46 16.0548 42.8775 16.4717C42.2951 16.8886 41.8584 17.478 41.6292 18.1567L39.4767 24.6142L33.395 21.5733C32.7584 21.2651 32.0419 21.162 31.3442 21.2783C30.6466 21.3945 30.0022 21.7245 29.5 22.2225L22.2225 29.5C21.7171 30.0049 21.3827 30.6554 21.2663 31.3602C21.1498 32.065 21.2572 32.7886 21.5733 33.4292L24.6142 39.5108L18.1567 41.6633C17.4835 41.8907 16.898 42.3222 16.4816 42.8978C16.0652 43.4734 15.8386 44.1646 15.8333 44.875V55.125C15.8315 55.8413 16.0548 56.54 16.4717 57.1225C16.8886 57.7049 17.478 58.1416 18.1567 58.3708L24.6142 60.5233L21.5733 66.605C21.2651 67.2416 21.162 67.9581 21.2782 68.6558C21.3945 69.3534 21.7244 69.9978 22.2225 70.5L29.5 77.7775C30.0049 78.2829 30.6554 78.6173 31.3602 78.7337C32.065 78.8502 32.7886 78.7428 33.4292 78.4267L39.5108 75.3858L41.6633 81.8433C41.8925 82.5219 42.3292 83.1114 42.9117 83.5283C43.4941 83.9452 44.1929 84.1685 44.9092 84.1667H55.1592C55.8754 84.1685 56.5742 83.9452 57.1566 83.5283C57.7391 83.1114 58.1758 82.5219 58.405 81.8433L60.5575 75.3858L66.6392 78.4267C67.2717 78.7271 67.9812 78.826 68.6718 78.7099C69.3623 78.5938 70.0005 78.2683 70.5 77.7775L77.7775 70.5C78.2829 69.9951 78.6173 69.3446 78.7337 68.6398C78.8502 67.935 78.7428 67.2114 78.4267 66.5708L75.3858 60.4892L81.8433 58.3367C82.5164 58.1093 83.1019 57.6778 83.5183 57.1022C83.9348 56.5266 84.1614 55.8354 84.1667 55.125V44.875C84.1685 44.1587 83.9452 43.46 83.5283 42.8775C83.1114 42.2951 82.5219 41.8584 81.8433 41.6292ZM77.3333 52.665L73.2333 54.0317C72.2905 54.3375 71.4255 54.8447 70.6983 55.5183C69.9712 56.1918 69.3992 57.0154 69.0221 57.9321C68.6451 58.8487 68.472 59.8364 68.5147 60.8266C68.5575 61.8169 68.8152 62.786 69.27 63.6667L71.2175 67.5617L67.4592 71.32L63.6667 69.27C62.7905 68.8335 61.8307 68.5903 60.8524 68.5569C59.8741 68.5236 58.9 68.7008 57.9961 69.0766C57.0922 69.4524 56.2796 70.018 55.6133 70.7352C54.947 71.4523 54.4426 72.3043 54.1342 73.2333L52.7675 77.3333H47.335L45.9683 73.2333C45.6625 72.2905 45.1552 71.4255 44.4817 70.6984C43.8082 69.9712 42.9846 69.3992 42.0679 69.0222C41.1513 68.6451 40.1636 68.472 39.1733 68.5148C38.1831 68.5576 37.214 68.8153 36.3333 69.27L32.4383 71.2175L28.68 67.4592L30.73 63.6667C31.1847 62.786 31.4424 61.8169 31.4852 60.8266C31.528 59.8364 31.3549 58.8487 30.9778 57.9321C30.6008 57.0154 30.0288 56.1918 29.3016 55.5183C28.5745 54.8447 27.7095 54.3375 26.7667 54.0317L22.6667 52.665V47.335L26.7667 45.9683C27.7095 45.6625 28.5745 45.1552 29.3016 44.4817C30.0288 43.8082 30.6008 42.9846 30.9778 42.0679C31.3549 41.1513 31.528 40.1636 31.4852 39.1733C31.4424 38.1831 31.1847 37.214 30.73 36.3333L28.7825 32.5408L32.5408 28.7825L36.3333 30.73C37.214 31.1847 38.1831 31.4424 39.1733 31.4852C40.1636 31.528 41.1513 31.3549 42.0679 30.9778C42.9846 30.6008 43.8082 30.0288 44.4817 29.3016C45.1552 28.5745 45.6625 27.7095 45.9683 26.7667L47.335 22.6667H52.665L54.0317 26.7667C54.3375 27.7095 54.8447 28.5745 55.5182 29.3016C56.1918 30.0288 57.0154 30.6008 57.9321 30.9778C58.8487 31.3549 59.8364 31.528 60.8266 31.4852C61.8169 31.4424 62.786 31.1847 63.6667 30.73L67.5617 28.7825L71.32 32.5408L69.27 36.3333C68.8335 37.2095 68.5903 38.1693 68.5569 39.1476C68.5236 40.1259 68.7008 41.1 69.0766 42.0039C69.4524 42.9078 70.018 43.7204 70.7352 44.3867C71.4523 45.053 72.3043 45.5574 73.2333 45.8658L77.3333 47.2325V52.665ZM50 36.3333C47.297 36.3333 44.6547 37.1349 42.4072 38.6366C40.1597 40.1383 38.408 42.2727 37.3736 44.77C36.3392 47.2672 36.0686 50.0152 36.5959 52.6662C37.1233 55.3173 38.4249 57.7525 40.3362 59.6638C42.2475 61.5751 44.6827 62.8767 47.3338 63.4041C49.9848 63.9314 52.7327 63.6607 55.23 62.6264C57.7273 61.592 59.8617 59.8403 61.3634 57.5928C62.8651 55.3453 63.6667 52.703 63.6667 50C63.6667 46.3754 62.2268 42.8992 59.6638 40.3362C57.1008 37.7732 53.6246 36.3333 50 36.3333ZM50 56.8333C48.6485 56.8333 47.3273 56.4326 46.2036 55.6817C45.0799 54.9308 44.204 53.8636 43.6868 52.615C43.1696 51.3664 43.0343 49.9924 43.298 48.6669C43.5616 47.3413 44.2124 46.1238 45.1681 45.1681C46.1238 44.2124 47.3413 43.5616 48.6669 43.298C49.9924 43.0343 51.3664 43.1696 52.615 43.6868C53.8636 44.204 54.9308 45.0799 55.6817 46.2036C56.4326 47.3273 56.8333 48.6485 56.8333 50C56.8333 51.8123 56.1134 53.5504 54.8319 54.8319C53.5504 56.1134 51.8123 56.8333 50 56.8333Z" fill="white"/>
</svg>
