<svg width="110" height="110" viewBox="0 0 110 110" fill="none" xmlns="http://www.w3.org/2000/svg">
<circle cx="55" cy="55" r="54" fill="#16161A" stroke="#7F5AF0" stroke-width="2"/>
<g clip-path="url(#clip0_35:76)">
<path d="M45.1912 22.3994H65.4939V24.3531H68.3943V26.3067H71.2947V51.7038H68.3943V53.6575H65.4939V55.6111H48.0916V53.6575H42.2908V51.7038H39.3904V47.7966H33.5896V41.9357H36.49V26.3067H39.3904V24.3531H45.1912V22.3994Z" fill="#FAE6CE"/>
<path fill-rule="evenodd" clip-rule="evenodd" d="M42.2908 57.5648H65.4939V59.5183H68.3943V63.4256H65.4939V75.1474H68.3943V79.0547H65.4939V88.8228H59.6931V79.0547H56.7927V82.9619H53.8923V84.9156H50.9919V88.8228H45.1912V77.101H48.0916V75.1474H39.3904V59.5183H42.2908V57.5648ZM45.1912 61.472H48.0916V73.1937H45.1912V61.472Z" fill="#FAE6CE"/>
<path d="M68.3943 63.4256H71.2947V69.2865H74.1951V73.1937H68.3943V63.4256Z" fill="#FAE6CE"/>
<path d="M65.4939 22.3994H50.9919V24.3531H62.5935V26.3067H68.3943V41.9357H71.2947V26.3067H68.3943V24.3531H65.4939V22.3994Z" fill="#E3C4A6"/>
<path d="M39.3904 26.3067H36.49V34.1212H39.3904V26.3067Z" fill="#E3C4A6"/>
<path d="M36.49 43.8893H39.3904V41.9357H42.2908V51.7038H39.3904V45.843H36.49V43.8893Z" fill="#E3C4A6"/>
<path d="M42.2908 51.7038H50.9919V53.6575H65.4939V55.6111H48.0916V53.6575H42.2908V51.7038Z" fill="#E3C4A6"/>
<path d="M68.3943 63.4256H71.2947V69.2865H74.1951V73.1937H68.3943V63.4256Z" fill="#E3C4A6"/>
<path d="M68.3943 63.4256H65.4939V61.472H62.5935V59.5183H48.0916V57.5648H65.4939V59.5183H68.3943V63.4256Z" fill="#E3C4A6"/>
<path d="M68.3943 75.1474H65.4939V65.3792H62.5935V75.1474H65.4939V79.0547H68.3943V75.1474Z" fill="#E3C4A6"/>
<path d="M62.5935 81.0083H65.4939V88.8228H62.5935V81.0083Z" fill="#E3C4A6"/>
<path d="M48.0916 77.101H45.1912V88.8228H50.9919V84.9155H48.0916V77.101Z" fill="#E3C4A6"/>
<path d="M53.8923 79.0547H56.7927V81.0082H53.8923V79.0547Z" fill="#E3C4A6"/>
<path d="M45.1912 65.3792H42.2908V71.2402H39.3904V75.1474H48.0916V73.1937H45.1912V65.3792Z" fill="#E3C4A6"/>
<path d="M48.0916 26.3067H50.9919V28.2603H48.0916V26.3067Z" fill="#FFF8EF"/>
<path d="M62.5935 26.3067H53.8923V28.2603H62.5935V30.2139H65.4939V32.1676H68.3943V30.2139H65.4939V28.2603H62.5935V26.3067Z" fill="#FFF8EF"/>
<path d="M36.49 41.9357H33.5896V43.8893H36.49V41.9357Z" fill="#FFF8EF"/>
<path d="M42.2908 57.5648H48.0916V59.5183H42.2908V57.5648Z" fill="#FFF8EF"/>
<path d="M42.2908 59.5184V61.472H39.3904V59.5184H42.2908Z" fill="#FFF8EF"/>
<path d="M53.8923 64.4024H50.9919V68.3097H53.8923V64.4024Z" fill="#FFF8EF"/>
<path d="M53.8923 64.4024H56.7927V62.4489H53.8923V64.4024Z" fill="#FFF8EF"/>
<path d="M59.6931 77.101H56.7927V79.0546H59.6931V77.101Z" fill="#FFF8EF"/>
<path fill-rule="evenodd" clip-rule="evenodd" d="M65.4939 20.4458H45.1912V22.3994H39.3904V24.3531H36.49V26.3067H33.5896V41.9357H30.6892V47.7966H33.5896V49.7502H36.49V51.7038H39.3904V53.6575H42.2908V57.5647H39.3904V59.5184H36.49V75.1473H39.3904V77.101H42.2908V90.7764H53.8923V84.9155H56.7927V90.7764H71.2947V88.8228H68.3943V79.0546H71.2947V75.1473H74.1951V73.1937H77.0955V69.2865H74.1951V63.4256H71.2947V59.5184H68.3943V57.5647H65.4939V55.6111H68.3943V53.6575H71.2947V51.7038H74.1951V26.3067H71.2947V24.3531H68.3943V22.3994H65.4939V20.4458ZM65.4939 22.3994V24.3531H68.3943V26.3067H71.2947V51.7038H68.3943V53.6575H65.4939V55.6111H48.0916V53.6575H42.2908V51.7038H39.3904V47.7966H33.5896V41.9357H36.49V43.8893H39.3904V41.9357H36.49V26.3067H39.3904V24.3531H45.1912V22.3994H65.4939ZM68.3943 63.4256H65.4939V75.1473H68.3943V79.0546H65.4939V88.8228H59.6931V79.0546H56.7927V81.0083H53.8923V84.9155H50.9919V88.8228H45.1912V77.101H50.9919V73.1937H48.0916V61.472H45.1912V73.1937H48.0916V75.1473H39.3904V59.5184H42.2908V57.5647H65.4939V59.5184H68.3943V63.4256ZM68.3943 63.4256V73.1937H74.1951V69.2865H71.2947V63.4256H68.3943Z" fill="black"/>
<path fill-rule="evenodd" clip-rule="evenodd" d="M41.8611 21.5586H44.6111H55.611V57.6142H44.6111V55.6111H41.8611H39.1111V23.5617H41.8611V21.5586ZM36.361 27.5679H39.111V53.608H36.3611H33.6111L33.6111 51.6049H30.8611V45.5957H33.6111L33.6111 41.5895H36.361V27.5679ZM55.6111 21.5586H58.3611H63.861V23.5617H66.611V55.6111H63.861V51.6049H58.3611V55.6111H55.6111V21.5586ZM69.3611 23.5617H66.6111V57.6142H69.3611H72.1111H74.8611L74.861 55.6111H77.611V51.6049H80.361V45.5957H77.611V43.5926H74.861L74.8611 27.5679H72.1111V25.5648H69.3611V23.5617Z" fill="#FFDE29"/>
<g style="mix-blend-mode:multiply">
<path fill-rule="evenodd" clip-rule="evenodd" d="M41.8611 21.5586H44.6111H47.3611H50.111V23.5617H47.361L47.3611 25.5648H44.6111V27.5679H41.8611V29.571H44.6111V31.5741H41.8611V33.5771H44.6111V35.5802H41.8611V37.5833H39.1111V23.5617H41.8611V21.5586ZM44.6111 35.5802H58.361V37.5833H44.6111V35.5802ZM36.361 27.5679H39.111V49.6018H36.3611V51.6049H39.111V53.608H36.361H33.6111L33.6111 51.6049H30.8611V45.5957H33.6111L33.6111 41.5895H36.361V27.5679ZM36.361 47.5987V49.6018H33.6111V47.5987H36.361ZM44.6111 31.5741H47.3611V33.5771H44.6111V31.5741ZM69.3611 23.5617H66.6111V25.5648L69.3611 25.5648V27.5679H72.1111V25.5648L69.3611 25.5648V23.5617ZM72.1111 31.5741H69.3611V33.5771H72.1111H74.8611V27.5679H72.1111V31.5741ZM41.8611 45.5957H39.1111V49.6018H41.8611V51.6049H39.1111V55.6111H41.8611H44.6111V57.6142H47.3611H55.611V53.608H47.3611H44.6111H41.8611V51.6049H44.6111H47.3611V49.6018H44.6111V47.5987H41.8611V45.5957ZM61.111 39.5864H63.861V43.5926H61.111L61.1111 45.5957H58.3611V47.5987H55.6111H52.8611V45.5957H55.6111V43.5926H58.3611V41.5895H55.6111V39.5864H58.3611V35.5802H61.1111H74.861V37.5833H61.111V39.5864ZM74.8611 49.6018H72.1111V51.6049H74.8611V49.6018ZM74.8611 49.6018H77.611V45.5957H74.861L74.8611 49.6018ZM77.611 51.6049H74.861L74.8611 53.608H69.3611H66.6111V57.6142H69.3611H74.8611L74.861 55.6111H77.611V51.6049ZM55.6111 53.608H58.3611V55.6111H55.6111V53.608ZM66.611 51.6049H63.861V55.6111H66.611V51.6049Z" fill="black" fill-opacity="0.2"/>
</g>
<path fill-rule="evenodd" clip-rule="evenodd" d="M66.6112 43.5926H61.1112V47.5988H66.6112H69.3611V49.6019H72.1111V47.5988H69.3611V45.5957H66.6112V43.5926ZM58.3611 45.5957H61.1111V47.5988H58.3611V45.5957ZM52.8611 47.5988H58.3612V49.6019H52.8611V47.5988Z" fill="#424242"/>
<g style="mix-blend-mode:multiply">
<path fill-rule="evenodd" clip-rule="evenodd" d="M61.1111 45.5957H58.3611V47.5988H61.1111V45.5957ZM58.3612 47.5988H52.8611V49.6018H58.3612V47.5988ZM61.1112 45.5957H66.6111H66.6112H69.3611V47.5988H66.6112H66.6111H61.1112V45.5957Z" fill="black" fill-opacity="0.2"/>
</g>
<path fill-rule="evenodd" clip-rule="evenodd" d="M47.361 37.5833H44.6111V39.5864H47.361V41.5895H50.111H52.861V37.5833H50.111H47.3611H47.361ZM55.6111 37.5833H52.8611V41.5895H55.6111V39.5864H58.3611V37.5833H55.6111ZM69.3611 37.5833H66.6111V39.5864H69.3611V41.5895H72.1111H74.8611V37.5833H72.1111H69.3611Z" fill="black"/>
<path fill-rule="evenodd" clip-rule="evenodd" d="M41.8611 19.5555H63.8611V21.5586H41.8611V19.5555ZM41.8611 21.5586H39.1111V23.5617H36.3612V27.5679H39.1112V23.5617H41.8611V21.5586ZM36.361 27.5679H33.611V41.5895H36.361V27.5679ZM33.6111 41.5895H30.8611V45.5957H28.1111V51.6049H30.8611L30.8611 45.5957H33.6111V41.5895ZM33.6111 51.6049H30.8611V53.608H33.611V55.6111H39.111V53.608H33.6111V51.6049ZM44.6111 57.6142V55.6111H39.1111V57.6142H44.6111ZM44.6111 57.6142V59.6173H55.6111V57.6142H44.6111ZM52.861 51.6049H47.361V55.6111H52.861V51.6049ZM69.3611 51.6049H72.1111H74.8611V53.608H72.1111V55.6111H69.3611V51.6049ZM55.6111 55.6111H58.3611V57.6142H55.6111V55.6111ZM58.3611 55.6111V51.6049H63.8611V55.6111H58.3611ZM66.6112 55.6111H63.8612V57.6142H66.6111V59.6173H74.8611V57.6142H77.611V55.6111H74.861V57.6142H66.6112V55.6111ZM74.861 33.5771H44.6112V31.5741H36.3612V33.5771H44.6111V35.5802H74.861V43.5926H77.611V27.5679L74.8611 27.5679V25.5648H72.1111V27.5679L74.861 27.5679V33.5771ZM44.6111 29.571H39.1111V31.5741H44.6111V29.571ZM63.8612 21.5586H69.3612V23.5617L72.1111 23.5617V25.5648H69.3611V23.5617L63.8612 23.5617V21.5586ZM77.6112 43.5926H80.3612V45.5957H77.6112V43.5926ZM83.1111 45.5957H80.3611V51.6049H83.1111V45.5957ZM77.6112 51.6049H80.3612V55.6111H77.6112V51.6049Z" fill="black"/>
<path fill-rule="evenodd" clip-rule="evenodd" d="M62.6703 57.8367H51.1302V59.6173H62.6703V57.8367ZM45.3601 59.6173H42.475V75.6419H45.3601H48.2451V73.8614H45.3601V59.6173ZM42.475 61.3978H39.59V75.6419H42.475V61.3978ZM74.2105 70.3004H71.3255V73.8614H74.2105V70.3004ZM68.4404 64.9588H71.3254V73.8614H68.4404V64.9588ZM54.0152 61.3978V59.6173H59.7853V61.3978H54.0152ZM45.36 77.4225H48.2451V88.1056H45.36V77.4225ZM48.2451 77.4225H51.1301V88.1056H48.2451V77.4225ZM54.0152 80.9835H51.1302V84.5446H54.0152V80.9835ZM59.7853 80.9835H62.6703V88.1056H59.7853V80.9835ZM65.5553 77.4225H62.6703V88.1056H65.5554V79.203H68.4404V75.6419H65.5553V77.4225ZM65.5553 61.3978H68.4404V64.9588H65.5553V61.3978Z" fill="#FFDE29"/>
<g style="mix-blend-mode:multiply">
<path fill-rule="evenodd" clip-rule="evenodd" d="M51.1302 57.8367H62.6703V59.6173H51.1302V57.8367ZM71.3254 64.9588H68.4404V73.8614H71.3254V64.9588ZM68.4404 75.6419H65.5553V79.203H68.4404V75.6419ZM62.6703 80.9835H65.5554V88.1056H62.6703V80.9835ZM48.2451 77.4225H45.36V88.1056H48.2451V77.4225ZM48.2451 84.5446H51.1301V88.1056H48.2451V84.5446ZM45.3601 66.7393H42.475V75.6419H45.3601H48.2451V73.8614H45.3601V66.7393ZM71.3255 70.3004H74.2105V73.8614H71.3255V70.3004ZM42.475 72.0809H39.59V75.6419H42.475V72.0809Z" fill="#714A1C" fill-opacity="0.25"/>
</g>
<g style="mix-blend-mode:lighten">
<path d="M39.59 61.3978H42.475V63.1783H39.59V61.3978Z" fill="#FFFCF9" fill-opacity="0.7"/>
</g>
<path fill-rule="evenodd" clip-rule="evenodd" d="M45.3599 57.8367H48.2449V61.3978H45.3599V57.8367ZM48.245 59.6173H51.13V61.3978H54.015V77.4225H51.1299V73.8614H48.245V59.6173ZM54.015 63.1783H56.9V80.9835H54.015V63.1783ZM59.7851 61.3978H56.9001V80.9835H59.7851V61.3978ZM62.6702 75.642H65.5552V59.6173H62.6701V61.3978H59.7852V77.4225H62.6702V75.642Z" fill="#FFE860"/>
<g style="mix-blend-mode:multiply">
<path fill-rule="evenodd" clip-rule="evenodd" d="M45.3599 57.8367H48.2449V59.6173H45.3599V57.8367ZM65.5552 59.6173H62.6701V61.3978H59.7852V63.1783H62.6701V64.9588H65.5552V59.6173ZM51.13 59.6173H48.245V61.3978H51.13V59.6173ZM56.9001 77.4225H59.7851V80.9835H56.9001V77.4225ZM56.9 79.203H54.015V80.9835H56.9V79.203ZM48.245 68.5199H51.13V73.8614H48.245V68.5199ZM65.5552 72.0809H62.6701V75.642H65.5552V72.0809Z" fill="black" fill-opacity="0.2"/>
</g>
<path fill-rule="evenodd" clip-rule="evenodd" d="M48.2449 59.6172H45.3599V61.3978H48.2449V59.6172ZM51.13 64.9588H48.245V68.5199H51.1299V70.3004H54.015V66.7393H51.13V64.9588ZM51.1299 73.8614H54.015V77.4225H51.1299V73.8614Z" fill="#FFDE29"/>
<path fill-rule="evenodd" clip-rule="evenodd" d="M48.245 56.0562H45.3599V57.8368H48.245V56.0562ZM45.3599 57.8368H42.4748V59.6173H39.5899V61.3978H42.4749H45.3599V57.8368ZM48.245 57.8368H51.13V59.6173H48.245V57.8368ZM65.5553 57.8368H62.6702V59.6173H65.5553V57.8368ZM59.7852 59.6173H62.6702V61.3978H59.7852V59.6173ZM54.0151 59.6173H51.1301V61.3978H54.0151V63.1783H59.7852V61.3978H54.0151V59.6173ZM36.7048 61.3978H39.5898V75.642H36.7048V61.3978ZM48.245 75.642H39.5899V77.4225H48.245H51.13V73.8615H48.245V75.642ZM45.3599 61.3978H48.245V73.8615H45.3599V61.3978ZM65.5553 59.6173H68.4403V75.642H65.5553V59.6173ZM71.3254 61.3978H68.4403V64.9589H71.3254V61.3978ZM71.3254 64.9589H74.2104V70.3004H77.0955V73.8615H74.2104V70.3004H71.3254V64.9589ZM71.3254 73.8615H74.2104V75.642H71.3254V73.8615ZM45.3599 89.8862V77.4225H42.4748V89.8862H45.3599ZM51.1301 84.5446H54.0151V80.9835H56.9001V84.5446H54.0151V89.8862H51.1301V84.5446ZM68.4403 79.203H65.5553V88.1056H59.7852V89.8862H71.3254V88.1056H68.4403V79.203ZM68.4403 73.8615H71.3254V79.203H68.4403V73.8615ZM51.1301 77.4225H54.0151V80.9835H51.1301V77.4225ZM62.6702 77.4225H59.7852V80.9835H62.6702V77.4225ZM62.6702 75.642H65.5553V77.4225H62.6702V75.642ZM59.7852 80.9835H56.9001V89.8862H59.7852V80.9835ZM51.13 88.1056H45.3599V89.8862H51.13V88.1056Z" fill="black"/>
<path fill-rule="evenodd" clip-rule="evenodd" d="M45.3599 57.8367H48.245V59.6173H51.13V63.1783H48.2451V68.5199H51.13V70.3004H48.2451V75.6419H51.13V79.203H48.245H48.245H45.36V91.6666H42.475V79.203H39.5899V77.4225H48.245V75.6419H45.36V61.3978H48.245V59.6173H45.36V63.1783H42.475V59.6173H45.3599V57.8367ZM54.0151 68.5199H51.13V70.3004H54.0151V68.5199ZM54.0151 66.7393H56.9001V68.5199H54.0151V66.7393ZM59.7852 64.9588H56.9001V66.7393H59.7852V64.9588ZM59.7852 66.7393H62.6702V68.5199H59.7852V66.7393ZM65.5553 68.5199H62.6703V70.3004H65.5553V68.5199ZM62.6703 59.6173H65.5553V63.1783H62.6703V59.6173ZM62.6702 63.1783H59.7852V64.9588H62.6702V63.1783ZM51.13 61.3978H54.0151V63.1783H51.13V61.3978ZM56.9001 63.1783H54.0151V64.9588H56.9001V63.1783ZM39.5899 61.3978H42.4749V63.1783H39.5899V61.3978ZM39.5898 63.1783H36.7048V77.4225H39.5898V63.1783ZM65.5553 75.6419H51.13V77.4225H62.6703V79.203H65.5553V77.4225H65.5553V75.6419ZM65.5553 61.3978H68.4404V63.1783H71.3253V66.7393H68.4404V75.6419H74.2104V77.4225H68.4404V89.8861H71.3254V91.6666H59.7852V89.8861H65.5553V61.3978ZM71.3253 66.7393H74.2104V72.0809H71.3253V66.7393ZM77.0955 72.0809H74.2104V75.6419H77.0955V72.0809ZM51.13 86.3251H54.0151V91.6666H51.1301H51.13H45.36V89.8861H51.13V86.3251ZM56.9001 82.764H54.0151V86.3251H56.9001V82.764ZM51.13 79.203H54.0151V82.764H51.13V79.203ZM62.6702 79.203H59.7852V82.764H62.6702V79.203ZM59.7852 82.764H56.9001V91.6666H59.7852V82.764Z" fill="black"/>
<path fill-rule="evenodd" clip-rule="evenodd" d="M48.245 57.8367H45.3599V59.6173H42.475V61.3978H45.36V59.6173H48.245V57.8367ZM62.6703 59.6173H65.5553V61.3978H62.6703V59.6173ZM42.4749 61.3978H39.5899V63.1783H42.4749V61.3978ZM36.7048 63.1783H39.5898V77.4225H36.7048V63.1783ZM48.245 77.4225H39.5899V79.203H42.475V91.6666H45.36V79.203H48.245V77.4225H51.13V75.6419H48.2451V64.9588H45.36V75.6419H48.245V77.4225ZM51.13 75.6419H65.5553V77.4225H51.13V75.6419ZM68.4403 66.7393H65.5553V77.4225H68.4403V82.764H65.5553V89.8861H59.7852V91.6666H71.3254V89.8861H68.4404V84.5446H71.3253V77.4225V75.6419H68.4404V66.7393H71.3253V63.1783H68.4404V61.3978H65.5553V63.1783H68.4403V66.7393ZM71.3253 66.7393H74.2104V72.0809H71.3253V66.7393ZM77.0955 72.0809H74.2104V75.6419H77.0955V72.0809ZM71.3253 75.6419H74.2104V77.4225H71.3253V75.6419ZM51.13 86.3251H54.0151V91.6666H51.1301H51.13H45.36V89.8861H51.13V86.3251ZM54.0151 86.3251V84.5446H45.36V82.764H56.9001V79.203H59.7852V91.6666H56.9001V84.5446V86.3251H54.0151ZM59.7852 82.764H65.5553V84.5446H59.7852V82.764Z" fill="black"/>
</g>
<defs>
<clipPath id="clip0_35:76">
<rect width="55" height="72.1111" fill="white" transform="translate(28.1111 19.5555)"/>
</clipPath>
</defs>
</svg>
