<svg width="100" height="100" viewBox="0 0 100 100" fill="none" xmlns="http://www.w3.org/2000/svg">
<circle cx="50" cy="50" r="50" fill="#7F5AF0"/>
<circle cx="50" cy="50" r="50" fill="#7F5AF0"/>
<circle cx="50" cy="50" r="50" fill="#7F5AF0"/>
<path d="M67.7917 17.6875H33.2084C29.9981 17.6875 26.9194 19.0242 24.6494 21.4036C22.3794 23.783 21.1042 27.0101 21.1042 30.375V66.625C21.1042 69.9899 22.3794 73.2171 24.6494 75.5964C26.9194 77.9758 29.9981 79.3125 33.2084 79.3125H67.7917C71.0019 79.3125 74.0807 77.9758 76.3506 75.5964C78.6206 73.2171 79.8959 69.9899 79.8959 66.625V30.375C79.8959 27.0101 78.6206 23.783 76.3506 21.4036C74.0807 19.0242 71.0019 17.6875 67.7917 17.6875V17.6875ZM45.3125 24.9375H55.6875V35.8125H45.3125V24.9375ZM38.3959 72.0625H33.2084C31.8325 72.0625 30.5131 71.4896 29.5402 70.4699C28.5674 69.4502 28.0209 68.0671 28.0209 66.625V61.1875H38.3959V72.0625ZM55.6875 72.0625H45.3125V61.1875H55.6875V72.0625ZM72.9792 66.625C72.9792 68.0671 72.4327 69.4502 71.4598 70.4699C70.487 71.4896 69.1675 72.0625 67.7917 72.0625H62.6042V61.1875H72.9792V66.625ZM72.9792 53.9375H28.0209V30.375C28.0209 28.9329 28.5674 27.5498 29.5402 26.5301C30.5131 25.5104 31.8325 24.9375 33.2084 24.9375H38.3959V39.4375C38.3959 40.3989 38.7602 41.3209 39.4088 42.0008C40.0573 42.6806 40.937 43.0625 41.8542 43.0625H72.9792V53.9375ZM72.9792 35.8125H62.6042V24.9375H67.7917C69.1675 24.9375 70.487 25.5104 71.4598 26.5301C72.4327 27.5498 72.9792 28.9329 72.9792 30.375V35.8125Z" fill="white"/>
</svg>
