<svg width="279" height="42" viewBox="0 0 279 42" fill="none" xmlns="http://www.w3.org/2000/svg">
<path d="M21.082 0L25.8152 14.2574H41.1322L28.7405 23.0689L33.4737 37.3262L21.082 28.5147L8.69031 37.3262L13.4235 23.0689L1.03183 14.2574H16.3488L21.082 0Z" fill="#FFC814"/>
<path d="M80.291 0L85.0242 14.2574H100.341L87.9495 23.0689L92.6827 37.3262L80.291 28.5147L67.8993 37.3262L72.6325 23.0689L60.2408 14.2574H75.5578L80.291 0Z" fill="#FFC814"/>
<path d="M139.5 0L144.233 14.2574H159.55L147.158 23.0689L151.892 37.3262L139.5 28.5147L127.108 37.3262L131.842 23.0689L119.45 14.2574H134.767L139.5 0Z" fill="#FFC814"/>
<path d="M198.709 0L203.442 14.2574H218.759L206.367 23.0689L211.101 37.3262L198.709 28.5147L186.317 37.3262L191.051 23.0689L178.659 14.2574H193.976L198.709 0Z" fill="#FFC814"/>
<path d="M257.918 0L262.651 14.2574H277.968L265.576 23.0689L270.31 37.3262L257.918 28.5147L245.526 37.3262L250.26 23.0689L237.868 14.2574H253.185L257.918 0Z" fill="white"/>
</svg>
