<svg width="100" height="100" viewBox="0 0 100 100" fill="none" xmlns="http://www.w3.org/2000/svg">
<circle cx="50" cy="50" r="50" fill="#7F5AF0"/>
<circle cx="50" cy="50" r="50" fill="#7F5AF0"/>
<circle cx="50" cy="50" r="50" fill="#7F5AF0"/>
<path d="M27.4583 70.25H41.415C41.8482 70.2526 42.2776 70.1654 42.6787 69.9933C43.0797 69.8212 43.4445 69.5676 43.7521 69.2471L66.5304 45.2808L75.8788 35.6667C76.1873 35.3452 76.4322 34.9627 76.5993 34.5412C76.7664 34.1198 76.8524 33.6678 76.8524 33.2112C76.8524 32.7547 76.7664 32.3027 76.5993 31.8812C76.4322 31.4598 76.1873 31.0773 75.8788 30.7558L61.9221 15.9196C61.6161 15.5954 61.252 15.3382 60.8509 15.1626C60.4498 14.987 60.0195 14.8966 59.585 14.8966C59.1505 14.8966 58.7202 14.987 58.3191 15.1626C57.918 15.3382 57.5539 15.5954 57.2479 15.9196L47.9654 25.7067L25.1213 49.6729C24.8162 49.9961 24.5748 50.3793 24.411 50.8007C24.2472 51.222 24.1642 51.6732 24.1667 52.1283V66.7917C24.1667 67.7089 24.5135 68.5885 25.1308 69.2371C25.7481 69.8856 26.5853 70.25 27.4583 70.25ZM59.585 23.2512L68.9004 33.0383L64.2263 37.9492L54.9108 28.1621L59.585 23.2512ZM30.75 53.5462L50.2696 33.0383L59.585 42.8254L40.0654 63.3333H30.75V53.5462ZM80.125 77.1667H20.875C20.002 77.1667 19.1647 77.531 18.5474 78.1796C17.9301 78.8281 17.5833 79.7078 17.5833 80.625C17.5833 81.5422 17.9301 82.4218 18.5474 83.0704C19.1647 83.719 20.002 84.0833 20.875 84.0833H80.125C80.998 84.0833 81.8353 83.719 82.4526 83.0704C83.0699 82.4218 83.4167 81.5422 83.4167 80.625C83.4167 79.7078 83.0699 78.8281 82.4526 78.1796C81.8353 77.531 80.998 77.1667 80.125 77.1667Z" fill="white"/>
</svg>
