<svg width="148" height="42" viewBox="0 0 148 42" fill="none" xmlns="http://www.w3.org/2000/svg">
<path d="M13.9966 42V7H0V0.00170898H35V7H20.9949V42H13.9966ZM49.0051 42V35.0017H63.0017V42H49.0051ZM42.0068 35.0017V7H49.0051V35.0017H42.0068ZM63.0017 35.0017V7H70V35.0017H63.0017ZM49.0051 7V0.00170898H63.0017V7H49.0051ZM91.0034 42V7H77.0068V0.00170898H112.007V7H98.0017V42H91.0034ZM119.014 42V0.00170898H147.007V7H126.012V14.0068H147.007V21.0051H126.012V35.0017H147.007V42H119.014Z" fill="#2CB67D"/>
</svg>
